<?xml version="1.0" encoding="UTF-8"?>
<svg width="77px" height="77px" viewBox="0 0 77 77" version="1.1" xmlns="http://www.w3.org/2000/svg" xmlns:xlink="http://www.w3.org/1999/xlink">
    <!-- Generator: Sketch 41 (35326) - http://www.bohemiancoding.com/sketch -->
    <title>avatar-placeholder</title>
    <desc>Created with Sketch.</desc>
    <defs></defs>
    <g id="Page-1" stroke="none" stroke-width="1" fill="none" fill-rule="evenodd">
        <g id="avatar-placeholder">
            <rect id="Rectangle" fill="#D8D8D8" x="0" y="0" width="77" height="77" rx="38.5"></rect>
            <g id="isotype" transform="translate(16.843750, 12.833333)" fill="#919191">
                <path d="M10.5840447,32.2736259 C13.5235763,30.3552154 16.5231464,28.5348617 19.4921631,26.6660136 C20.5634534,25.9943563 21.615087,25.3038994 22.6793265,24.6322421 C25.2054265,23.0394058 27.2140423,20.7296224 28.6726979,18.1525861 C29.4115335,16.8398207 30.0213186,15.4798428 30.6123016,14.0959382 C31.4338236,12.1860729 32.0940324,9.68872104 34.0985887,8.70238456 C35.5322461,8.00231425 37.3981372,8.38321915 38.48417,9.53875175 C39.54435,10.667794 39.7898451,12.3204471 39.5043956,13.7979223 C38.9040115,16.9216416 37.103073,19.743286 34.8320829,21.9218996 C33.4982047,23.2009112 31.991262,24.1472986 30.4150936,25.0866362 C28.3295602,26.3280486 26.2391126,27.5557887 24.139264,28.7751971 C21.3779246,30.3898237 18.6462839,31.925193 16.0646325,33.8171133 C13.4618286,35.722706 11.0763169,37.8171488 8.84207622,40.1350502 C7.18599903,41.8528609 6.14697138,43.9000912 5.05025557,45.9956022 C4.65263466,46.7565575 4.27146556,47.8561187 3.55378226,48.3850702 C3.04997243,48.7458937 2.22097236,48.8467278 1.68148134,48.5224352 C-0.242311591,47.3609209 -0.105782972,44.154099 0.410632789,42.3281909 C2.0192775,37.545196 6.60228043,34.8718118 10.5840447,32.2736259 Z" id="Fill-33"></path>
                <path d="M33.830873,39.4185303 C33.7238294,37.7141785 33.4112451,35.8369988 32.6606582,34.2892388 C31.8453324,32.6156499 30.0035848,32.2409403 28.5459976,31.34262 C27.1732333,30.4957849 27.2843364,28.7980556 28.6855174,28.0467138 C31.5872313,26.4970311 34.9433996,28.3658792 36.4975611,30.9061709 C37.4705679,32.4960163 38.0771481,34.3332469 38.6563798,36.0939974 C39.2503541,37.8968334 40.0312807,40.2211437 39.1003649,42.0271841 C38.3658025,43.4550968 36.2426649,44.795207 34.7743947,43.67236 C33.4646601,42.6682922 33.9201828,40.846443 33.830873,39.4185303 Z" id="Fill-36"></path>
                <path d="M9.49467875,13.1305376 C9.30900837,11.1683326 9.6374035,9.17878273 10.152751,7.283658 C10.5862667,5.68975364 11.0815302,3.98454728 11.8750627,2.53014426 C13.257228,-0.00715665409 16.5807064,-0.566443831 18.9275457,1.03386948 C21.6822617,2.91745811 19.9526855,6.31740288 19.2873488,8.84081775 C18.8422955,10.5272245 18.4508707,12.2616984 18.1696944,13.9846362 C17.8915093,15.6917652 17.8464271,17.4495249 18.4121983,19.1064506 C18.8769083,20.4758283 19.7208646,21.7129681 20.8280497,22.6437604 C22.0779596,23.6888455 23.6857497,24.2304013 25.1433369,24.9125265 C26.1552298,25.3846521 28.1995268,26.0783134 27.5508557,27.5925333 C26.937011,29.0195915 25.0290289,28.8946171 23.7938616,28.5673336 C17.1505371,25.9240715 10.2305231,20.8462652 9.49467875,13.1305376 Z" id="Fill-38"></path>
                <path d="M11.2043632,48.7365153 C14.3067036,48.9232292 17.5325394,48.4878483 20.6989778,47.8287952 C25.9757342,46.7354294 28.1785668,45.3105075 28.1785668,45.3105075 C28.1785668,45.3105075 31.403548,43.6147009 31.2315518,38.9703529 C31.0531459,34.3228003 27.9223887,32.1873402 27.9223887,32.1873402 C27.9223887,32.1873402 26.6652144,31.3471276 24.5892957,32.0636476 C23.1746541,32.5620498 19.1751561,34.8056074 16.5890177,36.3890439 C15.188264,37.2431425 13.8037484,38.3909843 12.6474215,39.5527122 C11.4898127,40.7142265 10.1369188,42.2412642 9.21754061,44.3617702 C9.07075632,44.692258 8.95943956,44.9934784 8.87974445,45.2694902 C8.7045434,45.8569768 8.5041305,46.6670673 8.66886222,47.2767715 C8.83786713,47.9138205 9.42436331,48.6294859 11.2043632,48.7365153 Z" id="Fill-42"></path>
            </g>
        </g>
    </g>
</svg>