<?xml version="1.0" encoding="UTF-8"?>
<svg width="194px" height="78px" viewBox="0 0 194 78" version="1.1" xmlns="http://www.w3.org/2000/svg" xmlns:xlink="http://www.w3.org/1999/xlink">
    <!-- Generator: Sketch 41 (35326) - http://www.bohemiancoding.com/sketch -->
    <title>bci-logo</title>
    <desc>Created with Sketch.</desc>
    <defs></defs>
    <g id="Page-1" stroke="none" stroke-width="1" fill="none" fill-rule="evenodd">
        <g id="bci-logo">
            <path d="M182.812913,76.7627922 L193.734979,76.7627922 L193.662816,32.1565422 C193.662816,32.1565422 191.687574,32.1118267 188.439584,31.8610164 C186.066944,31.6710595 182.814927,31.4958957 182.814927,31.4958957 L182.812913,76.7627922 Z M182.829326,20.4878767 C182.829326,17.1701871 185.191897,14.4798595 188.114987,14.4798595 C191.038076,14.4798595 193.400647,17.1701871 193.400647,20.4878767 C193.400647,23.7921181 191.038076,26.4807647 188.114987,26.4807647 C185.191897,26.4807647 182.829326,23.7921181 182.829326,20.4878767 Z M162.073373,29.2138241 C165.471058,29.2138241 168.707636,29.6482034 171.785456,30.525031 C175.897048,31.6926776 177.948145,33.3454707 177.948145,35.4810569 C177.948145,41.0345224 176.719702,43.8089017 174.267851,43.8089017 C173.058539,43.8089017 171.83983,42.806669 170.584871,40.7985052 C170.4533,40.56585 170.223722,40.1593759 169.917619,39.5911862 C166.925051,34.4404966 163.848574,31.8678414 160.675096,31.8678414 C155.852954,31.8678414 152.082709,34.4653759 149.362345,39.6557379 C147.31192,43.619281 146.287882,47.7095741 146.287882,51.9373759 C146.287882,57.1966603 147.642861,61.6722466 150.366581,65.3614448 C153.239996,69.2557293 157.229415,71.4965483 162.345577,72.0909621 C163.274965,72.1985483 166.345065,72.5270224 172.772574,70.2646862 C174.225224,69.7543241 175.474812,69.0092897 176.844896,68.3590655 C177.530608,68.023531 178.927543,67.7858328 179.1202,68.8573241 C179.327961,70.0051345 178.33346,71.2369966 177.581626,71.9739621 C176.363588,73.1691776 172.149626,77.1145655 161.170165,77.9123845 C160.681809,77.9534017 160.2052,77.9618069 159.729262,77.9618069 C151.424518,77.9618069 144.949013,75.4187379 140.306439,70.3272207 C136.242844,65.8997121 134.209871,60.4534966 134.209871,53.9633586 C134.209871,47.1117983 136.506321,41.4046862 141.114325,36.8534534 C146.200615,31.7636172 153.194013,29.2138241 162.073373,29.2138241 Z M112.302774,35.9633793 C124.982587,38.0586207 131.313096,44.6348276 131.313096,55.6775431 C131.313096,62.0059655 128.802507,67.0921034 123.784016,70.9302414 C118.755455,74.774431 112.231954,76.6871121 104.214853,76.6871121 C101.296798,76.6871121 79.1160194,76.7977241 73.2782304,76.7977241 L73.2782304,2.78480172 C77.1723273,2.78480172 86.55649,3.16101724 91.5897495,3.10016379 C118.664833,2.78480172 126.534251,8.99891379 126.534251,20.7947328 C126.534251,28.1764914 121.792663,33.2249741 112.302774,35.9633793 Z M86.5413862,31.6431207 C86.5413862,33.2878448 86.7639156,34.2900776 87.2126664,34.6484741 C87.6627599,34.9984655 88.9220817,35.1803534 91.0027149,35.1803534 L92.9168706,35.1803534 C106.046442,35.1803534 112.616262,30.6156724 112.616262,21.4903448 C112.616262,11.756819 106.708995,6.89526724 94.9015107,6.89526724 C91.734746,6.89526724 89.6145073,7.19886207 88.5230055,7.79831897 C87.1992408,8.54133621 86.5413862,10.0969655 86.5413862,12.4504138 L86.5413862,31.6431207 Z M88.3783446,38.8547586 C87.1482235,38.8547586 86.5413862,39.3469655 86.5413862,40.3212931 L86.5413862,63.9048621 C86.5413862,69.6684569 90.4502512,72.5551293 98.2867772,72.5551293 C104.508538,72.5551293 109.249455,70.8095431 112.5055,67.3301379 C115.387307,64.2551897 116.818476,60.1662414 116.818476,55.0253017 C116.818476,50.0181724 115.140275,46.0650517 111.798307,43.1830862 C108.441905,40.2980948 103.637888,38.8547586 97.3614173,38.8547586 L88.3783446,38.8547586 Z" id="Bci" fill="#020302"></path>
            <g id="isotype">
                <path d="M0.645066782,66.6148578 C3.17210138,59.0875216 10.3715824,54.8802284 16.626572,50.7912802 C21.244309,47.7721422 25.9563609,44.9073233 30.6204163,41.9661853 C32.3033159,40.9091509 33.9553367,39.8225302 35.6271602,38.7654957 C39.5954336,36.2587371 42.7507865,32.6236681 45.0422017,28.5680043 C46.2028453,26.5020129 47.1607623,24.3617198 48.0891429,22.1837716 C49.3796792,19.1780819 50.4168073,15.2478233 53.565783,13.695556 C55.8179284,12.593806 58.7490737,13.1932629 60.4551325,15.011806 C62.1205789,16.7886595 62.5062294,19.389556 62.0578142,21.7147629 C61.1146654,26.6307802 58.2855547,31.0714009 54.7180356,34.5000388 C52.6226343,36.5129095 50.2553644,38.002306 47.7793471,39.4806078 C44.5031637,41.434306 41.2192606,43.3664871 37.9205893,45.285556 C33.5827761,47.8266078 29.291617,50.2429267 25.2360772,53.220375 C21.147309,56.2193405 17.3998869,59.5155129 13.8900979,63.1633578 C11.2885512,65.8667974 9.65633322,69.0886681 7.93349239,72.3865216 C7.30886609,73.5840905 6.71008408,75.3145474 5.58266886,76.1469957 C4.79122941,76.7148491 3.48894567,76.8735388 2.64145433,76.3631767 C-0.380649481,74.5352198 -0.166175433,69.4884181 0.645066782,66.6148578" id="Fill-33" fill="#E11E25"></path>
                <path d="M54.6274128,68.7302716 C52.5699388,67.1500991 53.2855235,64.2829267 53.145226,62.0357198 C52.9770702,59.3534612 52.4860287,56.3992112 51.3069249,53.9633922 C50.0261221,51.3295474 47.1329042,50.7398405 44.8431671,49.3260905 C42.6866792,47.9933664 42.8612121,45.3215302 45.0623401,44.1390905 C49.6206689,41.7002457 54.8929042,44.6413836 57.3343505,48.6392198 C58.8628557,51.1412716 59.8157381,54.0326509 60.7256585,56.8036681 C61.6587381,59.6409181 62.8855028,63.2988491 61.4231187,66.1411422 C60.2691879,68.3883491 56.9339318,70.497375 54.6274128,68.7302716" id="Fill-36" fill="#099046"></path>
                <path d="M37.3779934,44.9584267 C26.9419346,40.7985388 16.0712218,32.8072371 14.9152772,20.6644526 C14.6236059,17.5763922 15.1394848,14.4452974 15.9490488,11.462806 C16.6300626,8.95436638 17.4080765,6.27076293 18.6546439,3.98186638 C20.8259,-0.011262931 26.0467824,-0.891452586 29.7334536,1.62707328 C34.0608619,4.59140948 31.343855,9.94214224 30.2986716,13.9134181 C29.5995332,16.5674353 28.9846405,19.2970991 28.5429381,22.0086078 C28.1059346,24.6952371 28.0351145,27.4615474 28.9238896,30.0691681 C29.6539069,32.2242543 30.9796855,34.1712284 32.7189727,35.6360819 C34.6824675,37.280806 37.2081595,38.1330905 39.4978965,39.2065991 C41.0874882,39.9496164 44.2988931,41.0412802 43.2798896,43.4243147 C42.3155955,45.6701767 39.3183291,45.4734957 37.3779934,44.9584267" id="Fill-38" fill="#056BB2"></path>
                <path d="M13.6179945,74.4027879 C13.8834858,75.4053569 14.804818,76.53165 17.601036,76.7000897 C22.4745308,76.9939345 27.5420256,76.3087448 32.5162125,75.2715466 C40.805517,73.5508397 44.2659668,71.3083397 44.2659668,71.3083397 C44.2659668,71.3083397 49.332119,68.6395293 49.0619287,61.3303914 C48.7816692,54.0162103 43.8635343,50.6554862 43.8635343,50.6554862 C43.8635343,50.6554862 41.8886277,49.3331845 38.6275481,50.4608224 C36.4052747,51.2451931 30.122427,54.7760379 26.0598388,57.2680034 C23.859382,58.6121586 21.6844339,60.4185983 19.8679495,62.2468914 C18.0494512,64.0748483 15.9241779,66.4780552 14.4799183,69.8152448 C14.2493336,70.3353569 14.0744651,70.8094086 13.9492713,71.2437879 C13.6740464,72.1683569 13.3592159,73.4432534 13.6179945,74.4027879" id="Fill-42" fill="#F9C311"></path>
            </g>
        </g>
    </g>
</svg>